<?xml version="1.0" encoding="UTF-8" standalone="no"?>
<svg width="47px" height="33px" viewBox="0 0 47 33" version="1.1" xmlns="http://www.w3.org/2000/svg" xmlns:xlink="http://www.w3.org/1999/xlink" xmlns:sketch="http://www.bohemiancoding.com/sketch/ns">
    <!-- Generator: sketchtool 3.5 (25227) - http://www.bohemiancoding.com/sketch -->
    <title>Video Symbol</title>
    <desc>Created with sketchtool.</desc>
    <defs></defs>
    <g id="Library" stroke="none" stroke-width="1" fill="none" fill-rule="evenodd" sketch:type="MSPage">
        <g sketch:type="MSArtboardGroup" transform="translate(-246.000000, -414.000000)" id="Video-Symbol" stroke="#DFDFDF" fill="#FFFFFF">
            <g sketch:type="MSLayerGroup" transform="translate(247.000000, 415.000000)">
                <path d="M43.8157895,0 L1.18421053,0 C0.532894737,0 0,0.536538462 0,1.19230769 L0,29.8076923 C0,30.4634615 0.532894737,31 1.18421053,31 L43.8157895,31 C44.4671053,31 45,30.4634615 45,29.8076923 L45,1.19230769 C45,0.536538462 44.4671053,0 43.8157895,0 L43.8157895,0 Z M8.28947368,28.6153846 L2.36842105,28.6153846 L2.36842105,23.8461538 L8.28947368,23.8461538 L8.28947368,28.6153846 L8.28947368,28.6153846 Z M8.28947368,21.4615385 L2.36842105,21.4615385 L2.36842105,16.6923077 L8.28947368,16.6923077 L8.28947368,21.4615385 L8.28947368,21.4615385 Z M8.28947368,14.3076923 L2.36842105,14.3076923 L2.36842105,9.53846154 L8.28947368,9.53846154 L8.28947368,14.3076923 L8.28947368,14.3076923 Z M8.28947368,7.15384615 L2.36842105,7.15384615 L2.36842105,2.38461538 L8.28947368,2.38461538 L8.28947368,7.15384615 L8.28947368,7.15384615 Z M34.3421053,28.6153846 L10.6578947,28.6153846 L10.6578947,2.38461538 L34.3421053,2.38461538 L34.3421053,28.6153846 L34.3421053,28.6153846 Z M42.6315789,28.6153846 L36.7105263,28.6153846 L36.7105263,23.8461538 L42.6315789,23.8461538 L42.6315789,28.6153846 L42.6315789,28.6153846 Z M42.6315789,21.4615385 L36.7105263,21.4615385 L36.7105263,16.6923077 L42.6315789,16.6923077 L42.6315789,21.4615385 L42.6315789,21.4615385 Z M42.6315789,14.3076923 L36.7105263,14.3076923 L36.7105263,9.53846154 L42.6315789,9.53846154 L42.6315789,14.3076923 L42.6315789,14.3076923 Z M42.6315789,7.15384615 L36.7105263,7.15384615 L36.7105263,2.38461538 L42.6315789,2.38461538 L42.6315789,7.15384615 L42.6315789,7.15384615 Z" id="Video" sketch:type="MSShapeGroup"></path>
                <path d="M27,14.5 L19,9 L19,20 L27,14.5 L27,14.5 Z" id="Triangle-1" sketch:type="MSShapeGroup"></path>
            </g>
        </g>
    </g>
</svg>